<mxfile host="app.diagrams.net" modified="2021-12-09T09:18:01.000Z" agent="5.0 (Windows NT 10.0; Win64; x64) AppleWebKit/537.36 (KHTML, like Gecko) Chrome/96.0.4664.93 Safari/537.36" etag="rh6MlhhGVHmrXeTgfixl" version="15.9.4" type="github">
  <diagram id="uuI894Q_dZWisV19ayU7" name="第 1 页">
    <mxGraphModel dx="1422" dy="762" grid="1" gridSize="10" guides="1" tooltips="1" connect="1" arrows="1" fold="1" page="1" pageScale="1" pageWidth="827" pageHeight="1169" math="0" shadow="0">
      <root>
        <mxCell id="0" />
        <mxCell id="1" parent="0" />
        <mxCell id="kqC6SkzN8LWWIlsdUToC-1" value="" style="rounded=0;whiteSpace=wrap;html=1;" vertex="1" parent="1">
          <mxGeometry x="10" y="80" width="1410" height="640" as="geometry" />
        </mxCell>
        <mxCell id="kqC6SkzN8LWWIlsdUToC-4" value="" style="endArrow=none;dashed=1;html=1;rounded=0;entryX=0.5;entryY=0;entryDx=0;entryDy=0;exitX=0.5;exitY=1;exitDx=0;exitDy=0;" edge="1" parent="1" source="kqC6SkzN8LWWIlsdUToC-1" target="kqC6SkzN8LWWIlsdUToC-1">
          <mxGeometry width="50" height="50" relative="1" as="geometry">
            <mxPoint x="745" y="660" as="sourcePoint" />
            <mxPoint x="720" y="370" as="targetPoint" />
          </mxGeometry>
        </mxCell>
        <mxCell id="kqC6SkzN8LWWIlsdUToC-5" value="&lt;h1&gt;云资源监控&lt;/h1&gt;" style="text;html=1;strokeColor=none;fillColor=none;spacing=5;spacingTop=-20;whiteSpace=wrap;overflow=hidden;rounded=0;" vertex="1" parent="1">
          <mxGeometry x="760" y="90" width="150" height="50" as="geometry" />
        </mxCell>
        <mxCell id="kqC6SkzN8LWWIlsdUToC-6" value="容器集群节点数" style="rounded=0;whiteSpace=wrap;html=1;" vertex="1" parent="1">
          <mxGeometry x="775" y="150" width="120" height="40" as="geometry" />
        </mxCell>
        <mxCell id="kqC6SkzN8LWWIlsdUToC-7" value="POD总数&lt;span style=&quot;white-space: pre&quot;&gt;	&lt;/span&gt;" style="rounded=0;whiteSpace=wrap;html=1;" vertex="1" parent="1">
          <mxGeometry x="970" y="150" width="120" height="40" as="geometry" />
        </mxCell>
        <mxCell id="kqC6SkzN8LWWIlsdUToC-8" value="&lt;h1&gt;业务监控&lt;/h1&gt;" style="text;html=1;strokeColor=none;fillColor=none;spacing=5;spacingTop=-20;whiteSpace=wrap;overflow=hidden;rounded=0;" vertex="1" parent="1">
          <mxGeometry x="70" y="100" width="150" height="50" as="geometry" />
        </mxCell>
        <mxCell id="kqC6SkzN8LWWIlsdUToC-9" value="容器集群资源池" style="rounded=0;whiteSpace=wrap;html=1;" vertex="1" parent="1">
          <mxGeometry x="775" y="220" width="120" height="40" as="geometry" />
        </mxCell>
        <mxCell id="kqC6SkzN8LWWIlsdUToC-11" value="车辆在线数" style="rounded=0;whiteSpace=wrap;html=1;" vertex="1" parent="1">
          <mxGeometry x="60" y="150" width="120" height="40" as="geometry" />
        </mxCell>
        <mxCell id="kqC6SkzN8LWWIlsdUToC-12" value="APP在线用户数" style="rounded=0;whiteSpace=wrap;html=1;" vertex="1" parent="1">
          <mxGeometry x="210" y="150" width="120" height="40" as="geometry" />
        </mxCell>
        <mxCell id="kqC6SkzN8LWWIlsdUToC-13" value="业务监控" style="rounded=0;whiteSpace=wrap;html=1;" vertex="1" parent="1">
          <mxGeometry x="20" y="470" width="120" height="40" as="geometry" />
        </mxCell>
        <mxCell id="kqC6SkzN8LWWIlsdUToC-15" value="图拉专线" style="rounded=0;whiteSpace=wrap;html=1;" vertex="1" parent="1">
          <mxGeometry x="760" y="330" width="120" height="40" as="geometry" />
        </mxCell>
        <mxCell id="kqC6SkzN8LWWIlsdUToC-16" value="" style="endArrow=none;dashed=1;html=1;dashPattern=1 3;strokeWidth=2;rounded=0;" edge="1" parent="1" target="kqC6SkzN8LWWIlsdUToC-1">
          <mxGeometry width="50" height="50" relative="1" as="geometry">
            <mxPoint x="715" y="270" as="sourcePoint" />
            <mxPoint x="720" y="370" as="targetPoint" />
            <Array as="points">
              <mxPoint x="1450" y="270" />
            </Array>
          </mxGeometry>
        </mxCell>
        <mxCell id="kqC6SkzN8LWWIlsdUToC-17" value="&lt;h1&gt;网络监控&lt;/h1&gt;" style="text;html=1;strokeColor=none;fillColor=none;spacing=5;spacingTop=-20;whiteSpace=wrap;overflow=hidden;rounded=0;" vertex="1" parent="1">
          <mxGeometry x="760" y="270" width="150" height="50" as="geometry" />
        </mxCell>
        <mxCell id="kqC6SkzN8LWWIlsdUToC-19" value="APN" style="rounded=0;whiteSpace=wrap;html=1;" vertex="1" parent="1">
          <mxGeometry x="760" y="390" width="120" height="40" as="geometry" />
        </mxCell>
        <mxCell id="kqC6SkzN8LWWIlsdUToC-20" value="SMPP短信通道" style="rounded=0;whiteSpace=wrap;html=1;" vertex="1" parent="1">
          <mxGeometry x="760" y="450" width="120" height="40" as="geometry" />
        </mxCell>
        <mxCell id="kqC6SkzN8LWWIlsdUToC-23" value="站点监控" style="rounded=0;whiteSpace=wrap;html=1;" vertex="1" parent="1">
          <mxGeometry x="930" y="330" width="450" height="170" as="geometry" />
        </mxCell>
        <mxCell id="kqC6SkzN8LWWIlsdUToC-24" value="" style="rounded=0;whiteSpace=wrap;html=1;" vertex="1" parent="1">
          <mxGeometry x="10" y="550" width="180" height="160" as="geometry" />
        </mxCell>
        <mxCell id="kqC6SkzN8LWWIlsdUToC-25" value="&lt;h1&gt;返回码大于500&lt;/h1&gt;" style="text;html=1;strokeColor=none;fillColor=none;spacing=5;spacingTop=-20;whiteSpace=wrap;overflow=hidden;rounded=0;" vertex="1" parent="1">
          <mxGeometry x="20" y="554.5" width="110" height="60" as="geometry" />
        </mxCell>
        <mxCell id="kqC6SkzN8LWWIlsdUToC-26" value="&lt;h1&gt;延迟大于500ms&lt;/h1&gt;" style="text;html=1;strokeColor=none;fillColor=none;spacing=5;spacingTop=-20;whiteSpace=wrap;overflow=hidden;rounded=0;" vertex="1" parent="1">
          <mxGeometry x="20" y="640" width="110" height="60" as="geometry" />
        </mxCell>
        <mxCell id="kqC6SkzN8LWWIlsdUToC-27" value="" style="endArrow=none;dashed=1;html=1;dashPattern=1 3;strokeWidth=2;rounded=0;" edge="1" parent="1">
          <mxGeometry width="50" height="50" relative="1" as="geometry">
            <mxPoint x="10" y="460" as="sourcePoint" />
            <mxPoint x="685" y="465.3061224489795" as="targetPoint" />
            <Array as="points">
              <mxPoint x="715" y="460" />
            </Array>
          </mxGeometry>
        </mxCell>
        <mxCell id="kqC6SkzN8LWWIlsdUToC-28" value="&lt;h1&gt;远控成功/失败&lt;/h1&gt;" style="text;html=1;strokeColor=none;fillColor=none;spacing=5;spacingTop=-20;whiteSpace=wrap;overflow=hidden;rounded=0;" vertex="1" parent="1">
          <mxGeometry x="60" y="230" width="210" height="50" as="geometry" />
        </mxCell>
        <mxCell id="kqC6SkzN8LWWIlsdUToC-29" value="&lt;h1&gt;短信&lt;span style=&quot;white-space: pre&quot;&gt;	&lt;/span&gt;&lt;/h1&gt;" style="text;html=1;strokeColor=none;fillColor=none;spacing=5;spacingTop=-20;whiteSpace=wrap;overflow=hidden;rounded=0;" vertex="1" parent="1">
          <mxGeometry x="250" y="230" width="210" height="50" as="geometry" />
        </mxCell>
        <mxCell id="kqC6SkzN8LWWIlsdUToC-30" value="业务告警列表" style="rounded=0;whiteSpace=wrap;html=1;" vertex="1" parent="1">
          <mxGeometry x="270" y="550" width="340" height="160" as="geometry" />
        </mxCell>
        <mxCell id="kqC6SkzN8LWWIlsdUToC-31" value="云平台告警列表" style="rounded=0;whiteSpace=wrap;html=1;" vertex="1" parent="1">
          <mxGeometry x="1060" y="550" width="340" height="160" as="geometry" />
        </mxCell>
        <mxCell id="kqC6SkzN8LWWIlsdUToC-32" value="" style="endArrow=none;dashed=1;html=1;dashPattern=1 3;strokeWidth=2;rounded=0;" edge="1" parent="1">
          <mxGeometry width="50" height="50" relative="1" as="geometry">
            <mxPoint x="710" y="530" as="sourcePoint" />
            <mxPoint x="1385" y="535.3061224489795" as="targetPoint" />
            <Array as="points">
              <mxPoint x="1415" y="530" />
            </Array>
          </mxGeometry>
        </mxCell>
        <mxCell id="kqC6SkzN8LWWIlsdUToC-33" value="&lt;h1&gt;P0告警 1条&lt;/h1&gt;" style="text;html=1;strokeColor=none;fillColor=none;spacing=5;spacingTop=-20;whiteSpace=wrap;overflow=hidden;rounded=0;" vertex="1" parent="1">
          <mxGeometry x="730" y="540" width="290" height="40" as="geometry" />
        </mxCell>
        <mxCell id="kqC6SkzN8LWWIlsdUToC-34" value="&lt;h1&gt;P1告警 1条&lt;/h1&gt;" style="text;html=1;strokeColor=none;fillColor=none;spacing=5;spacingTop=-20;whiteSpace=wrap;overflow=hidden;rounded=0;" vertex="1" parent="1">
          <mxGeometry x="730" y="585" width="290" height="40" as="geometry" />
        </mxCell>
        <mxCell id="kqC6SkzN8LWWIlsdUToC-35" value="&lt;h1&gt;P2告警 1条&lt;/h1&gt;" style="text;html=1;strokeColor=none;fillColor=none;spacing=5;spacingTop=-20;whiteSpace=wrap;overflow=hidden;rounded=0;" vertex="1" parent="1">
          <mxGeometry x="730" y="625" width="290" height="40" as="geometry" />
        </mxCell>
        <mxCell id="kqC6SkzN8LWWIlsdUToC-36" value="&lt;h1&gt;P3告警 1条&lt;/h1&gt;" style="text;html=1;strokeColor=none;fillColor=none;spacing=5;spacingTop=-20;whiteSpace=wrap;overflow=hidden;rounded=0;" vertex="1" parent="1">
          <mxGeometry x="730" y="670" width="290" height="40" as="geometry" />
        </mxCell>
        <mxCell id="kqC6SkzN8LWWIlsdUToC-38" value="&lt;h1&gt;&lt;br&gt;&lt;/h1&gt;" style="text;html=1;strokeColor=none;fillColor=none;spacing=5;spacingTop=-20;whiteSpace=wrap;overflow=hidden;rounded=0;" vertex="1" parent="1">
          <mxGeometry x="500" y="100" width="200" height="190" as="geometry" />
        </mxCell>
        <mxCell id="kqC6SkzN8LWWIlsdUToC-41" value="1001指令上传次数&lt;br&gt;1002&lt;br&gt;3016" style="rounded=0;whiteSpace=wrap;html=1;" vertex="1" parent="1">
          <mxGeometry x="550" y="100" width="140" height="122.5" as="geometry" />
        </mxCell>
        <mxCell id="kqC6SkzN8LWWIlsdUToC-42" value="验证码登陆次数&lt;br&gt;账户密码次数&lt;br&gt;第三方次数" style="rounded=0;whiteSpace=wrap;html=1;" vertex="1" parent="1">
          <mxGeometry x="390" y="100" width="140" height="122.5" as="geometry" />
        </mxCell>
      </root>
    </mxGraphModel>
  </diagram>
</mxfile>
